<?xml version="1.0" standalone="no"?>
<!DOCTYPE svg PUBLIC "-//W3C//DTD SVG 20010904//EN"
 "http://www.w3.org/TR/2001/REC-SVG-20010904/DTD/svg10.dtd">
<svg version="1.0" xmlns="http://www.w3.org/2000/svg"
 width="260.000000pt" height="260.000000pt" viewBox="0 0 260.000000 260.000000"
 preserveAspectRatio="xMidYMid meet">
<metadata>
Created by potrace 1.11, written by Peter Selinger 2001-2013
</metadata>
<g transform="translate(0.000000,260.000000) scale(0.100000,-0.100000)"
fill="#000000" stroke="none">
<path d="M1305 2203 c4 -31 7 -118 7 -192 l-1 -136 67 -40 c70 -42 294 -255
352 -335 l32 -45 -6 37 c-11 59 -67 185 -139 313 -101 180 -289 454 -311 455
-4 0 -5 -26 -1 -57z"/>
<path d="M910 1955 c0 -3 12 -23 26 -44 98 -149 171 -501 103 -501 -20 0 -206
-73 -299 -117 -191 -92 -348 -200 -481 -332 -80 -80 -195 -229 -185 -239 3 -2
24 11 48 30 152 122 345 213 589 277 84 21 169 36 169 29 0 -3 -27 -26 -61
-53 -33 -26 -58 -49 -56 -51 2 -2 48 7 102 21 54 14 166 37 249 52 133 24 176
27 366 27 179 0 236 -4 340 -22 131 -24 315 -69 413 -102 74 -26 138 -26 160
-2 24 27 21 77 -8 121 -65 98 -322 261 -530 336 -71 25 -92 39 -190 128 -231
211 -456 352 -670 422 -85 27 -85 27 -85 20z"/>
</g>
</svg>
